# Blender 5.0.1
# www.blender.org
o Cube
v 1.000000 1.000000 -1.000000
v 1.000000 -1.000000 -1.000000
v 1.000000 1.000000 1.000000
v 1.000000 -1.000000 1.000000
v -1.000000 1.000000 -1.000000
v -1.000000 -1.000000 -1.000000
v -1.000000 1.000000 1.000000
v -1.000000 -1.000000 1.000000
vn -0.0000 1.0000 -0.0000
vn -0.0000 -0.0000 1.0000
vn -1.0000 -0.0000 -0.0000
vn -0.0000 -1.0000 -0.0000
vn 1.0000 -0.0000 -0.0000
vn -0.0000 -0.0000 -1.0000
vt 0.995316 0.999223
vt 0.000777 0.999223
vt 0.000777 0.004684
vt 0.995316 0.004684
vt 0.007044 -0.000768
vt 1.004674 -0.000768
vt 1.004674 0.996862
vt 0.007044 0.996862
vt 0.001056 -0.000898
vt 1.002851 -0.000898
vt 1.002851 1.000898
vt 0.001056 1.000898
vt -0.003296 -0.003296
vt 0.999389 -0.003296
vt 0.999389 0.999389
vt -0.003296 0.999389
vt -0.001054 0.004806
vt 0.993241 0.004806
vt 0.993241 0.999100
vt -0.001054 0.999100
vt -0.007195 -0.005242
vt 0.999383 -0.005242
vt 0.999383 1.001336
vt -0.007195 1.001336
s 0
f 1/1/1 5/2/1 7/3/1 3/4/1
f 4/5/2 3/6/2 7/7/2 8/8/2
f 8/9/3 7/10/3 5/11/3 6/12/3
f 6/13/4 2/14/4 4/15/4 8/16/4
f 2/17/5 1/18/5 3/19/5 4/20/5
f 6/21/6 5/22/6 1/23/6 2/24/6
